<?xml version="1.0" standalone="no"?>
<!DOCTYPE svg PUBLIC "-//W3C//DTD SVG 20010904//EN"
 "http://www.w3.org/TR/2001/REC-SVG-20010904/DTD/svg10.dtd">
<svg version="1.0" xmlns="http://www.w3.org/2000/svg"
 width="555.000000pt" height="555.000000pt" viewBox="0 0 555.000000 555.000000"
 preserveAspectRatio="xMidYMid meet">
<metadata>
Created by potrace 1.14, written by Peter Selinger 2001-2017
</metadata>
<g transform="translate(0.000000,555.000000) scale(0.100000,-0.100000)"
fill="#000000" stroke="none">
<path d="M975 5529 c-307 -27 -492 -106 -675 -289 -188 -188 -262 -367 -290
-695 -13 -162 -13 -3368 0 -3530 28 -328 102 -507 290 -695 188 -188 367 -262
695 -290 162 -13 3398 -13 3560 0 325 27 506 102 691 285 188 186 266 372 294
700 13 162 13 3368 0 3530 -27 325 -102 506 -285 691 -165 167 -322 243 -590
286 -86 13 -3537 20 -3690 7z m2095 -730 c326 -40 617 -154 892 -349 153 -108
372 -330 466 -472 l25 -38 -39 -42 c-21 -24 -149 -157 -284 -295 l-247 -253
-46 69 c-268 392 -789 582 -1262 461 -401 -102 -717 -405 -829 -793 -162 -557
149 -1154 705 -1358 413 -151 860 -73 1194 209 41 35 75 68 75 73 0 5 -134 9
-320 9 l-320 0 0 335 0 335 790 0 790 0 0 -337 0 -337 -69 -140 c-289 -589
-797 -975 -1436 -1092 -113 -21 -379 -29 -504 -15 -659 72 -1227 469 -1535
1070 -96 188 -160 382 -203 611 -22 121 -25 523 -5 644 61 362 199 684 411
961 64 85 233 256 320 327 266 214 599 363 911 407 41 6 86 13 100 15 57 8
342 5 420 -5z"/>
</g>
</svg>
