<?xml version="1.0" encoding="UTF-8"?>
<svg width="24px" height="20px" viewBox="0 0 24 20" version="1.1" xmlns="http://www.w3.org/2000/svg" xmlns:xlink="http://www.w3.org/1999/xlink">
    <!-- Generator: Sketch 57.1 (83088) - https://sketch.com -->
    <title>checkbox-on</title>
    <desc>Created with Sketch.</desc>
    <g id="checkbox-on" stroke="none" stroke-width="1" fill="none" fill-rule="evenodd">
        <g fill="#FFFFFF" fill-rule="nonzero" id="Shape">
            <polygon points="6.47555556 6.50956522 3.96088889 8.96956522 10.8791111 15.7373913 23.2631111 3.6226087 20.7493333 1.1626087 10.8791111 10.8165217"></polygon>
            <path d="M18.6666667,17.3913043 C18.6666667,17.8626087 18.2595556,18.2608696 17.7777778,18.2608696 L2.66666667,18.2608696 C2.18488889,18.2608696 1.77777778,17.8626087 1.77777778,17.3913043 L1.77777778,2.60869565 C1.77777778,2.1373913 2.18488889,1.73913043 2.66666667,1.73913043 L17.696,1.73913043 L19.1048889,0.360869565 C18.7031248,0.127427633 18.245057,0.00286929921 17.7777778,0 L2.66666667,0 C1.2,0 0,1.17391304 0,2.60869565 L0,17.3913043 C0,18.826087 1.2,20 2.66666667,20 L17.7777778,20 C19.2444444,20 20.4444444,18.826087 20.4444444,17.3913043 L20.4444444,8.84434783 L18.6666667,10.5834783 L18.6666667,17.3913043 Z"></path>
        </g>
    </g>
</svg>