<?xml version="1.0" encoding="UTF-8"?>
<svg width="49px" height="49px" viewBox="0 0 49 49" version="1.1" xmlns="http://www.w3.org/2000/svg" xmlns:xlink="http://www.w3.org/1999/xlink">
    <!-- Generator: Sketch 57.1 (83088) - https://sketch.com -->
    <title>eco</title>
    <desc>Created with Sketch.</desc>
    <g id="eco" stroke="none" stroke-width="1" fill="none" fill-rule="evenodd">
        <g fill="#323232" fill-rule="nonzero" id="Shape">
            <path d="M24.5,0 C10.969,0 0,10.969 0,24.5 C0,38.031 10.969,49 24.5,49 C38.031,49 49,38.031 49,24.5 C49,10.969 38.031,0 24.5,0 Z M24.5,47 C12.093,47 2,36.906 2,24.5 C2,12.093 12.093,2 24.5,2 C36.906,2 47,12.093 47,24.5 C47,36.906 36.906,47 24.5,47 Z"></path>
            <path d="M34.807,26.756 C34.357,17.263 25.61,8.063 25.221,7.659 C25.206,7.644 25.188,7.636 25.173,7.622 C25.1360947,7.58894353 25.0966389,7.55885017 25.055,7.532 C25.0137913,7.50290471 24.970319,7.47715577 24.925,7.455 C24.907,7.446 24.893,7.433 24.874,7.425 C24.847,7.414 24.818,7.414 24.791,7.405 C24.6951708,7.37376992 24.5947677,7.3588954 24.494,7.3608042 C24.449,7.3608042 24.405,7.363 24.36,7.369 C24.3063512,7.37716408 24.253494,7.38987657 24.202,7.407 C24.177,7.415 24.15,7.415 24.126,7.425 C24.108,7.432 24.095,7.446 24.077,7.454 C24.0304721,7.47644989 23.985973,7.50288171 23.944,7.533 C23.9023447,7.56019695 23.86289,7.59062386 23.826,7.624 C23.811,7.637 23.793,7.645 23.78,7.66 C23.391,8.064 14.64,17.268 14.193,26.765 C14.185,26.832 14.176,26.898 14.182,26.967 C14.169,27.33 14.165,27.694 14.179,28.058 C14.548,38.314 24.157,40.878 24.254,40.903 C24.4160485,40.944527 24.5859515,40.944527 24.748,40.903 C24.845,40.879 34.454,38.314 34.822,28.058 C34.835,27.695 34.831,27.331 34.819,26.969 C34.825,26.896 34.815,26.827 34.807,26.756 L34.807,26.756 Z M16.783,23.25 C19.002,25.308 22.151,26.771 23.5,27.341 L23.5,31.893 C21.052,30.697 17.281,28.552 16.198,26.665 C16.2766022,25.5097636 16.4726128,24.3655309 16.783,23.25 L16.783,23.25 Z M18.807,18.154 C20.32,19.842 22.409,20.8 23.5,21.213 L23.5,25.153 C21.846,24.393 19.076,22.937 17.484,21.11 C17.8699085,20.1009226 18.3115893,19.1140681 18.807,18.154 L18.807,18.154 Z M31.518,21.108 C29.928,22.932 27.156,24.391 25.5,25.152 L25.5,21.213 C26.592,20.8 28.683,19.841 30.195,18.151 C30.684,19.1 31.13,20.091 31.518,21.108 Z M25.5,19.047 L25.5,11.039 C26.8384956,12.6939407 28.0585264,14.4412814 29.151,16.268 C28.198,17.642 26.615,18.544 25.5,19.047 Z M25.5,31.893 L25.5,27.341 C26.85,26.772 29.999,25.307 32.219,23.249 C32.524,24.377 32.734,25.522 32.803,26.666 C31.72,28.549 27.948,30.695 25.5,31.893 L25.5,31.893 Z M23.5,19.05 C22.387,18.55 20.806,17.651 19.851,16.271 C20.9432202,14.4445952 22.1625629,12.6972829 23.5,11.042 L23.5,19.05 L23.5,19.05 Z M16.383,29.825 C18.711,31.808 22.073,33.454 23.5,34.106 L23.5,38.509 C21.408,37.605 17.338,35.178 16.383,29.825 Z M25.5,38.521 L25.5,34.106 C26.928,33.453 30.292,31.806 32.621,29.822 C31.671,35.233 27.601,37.635 25.5,38.521 Z"></path>
        </g>
    </g>
</svg>