<?xml version="1.0" encoding="UTF-8"?>
<svg width="61px" height="61px" viewBox="0 0 61 61" version="1.1" xmlns="http://www.w3.org/2000/svg" xmlns:xlink="http://www.w3.org/1999/xlink">
    <!-- Generator: Sketch 57.1 (83088) - https://sketch.com -->
    <title>hit</title>
    <desc>Created with Sketch.</desc>
    <g id="hit" stroke="none" stroke-width="1" fill="none" fill-rule="evenodd">
        <g fill-rule="nonzero">
            <circle id="Oval" fill="#FFFFFF" cx="30.5" cy="30.5" r="30.5"></circle>
            <g id="Group" transform="translate(12.000000, 17.000000)" fill="#231F20">
                <path d="M7.985,1.27 C7.07,3.953 6.267,6.654 5.513,9.364 C4.97,6.501 4.592,3.608 4.555,0.649 C4.55,0.218 2.616,0.539 2.623,1.167 C2.675,5.41 3.423,9.521 4.37,13.599 C3.174,18.179 2.059,22.779 0.791,27.37 C0.682,27.764 2.562,27.508 2.695,27.026 C3.597,23.761 4.421,20.491 5.251,17.226 C6.056,20.43 6.895,23.633 7.524,26.883 C7.622,27.391 9.565,26.928 9.456,26.365 C8.592,21.903 7.336,17.529 6.31,13.118 C7.378,9.032 8.512,4.961 9.888,0.927 C10.012,0.566 8.151,0.782 7.985,1.27 L7.985,1.27 Z M22.395,1.798 C22.444,0.751 20.476,1.004 20.432,1.926 C20.428,2.006 20.428,2.085 20.424,2.164 C20.385,2.229 20.34,2.292 20.323,2.368 C19.319,6.831 17.712,11.097 16.267,15.428 C15.623,17.358 15.128,19.326 14.601,21.284 C14.462,14.661 14.466,8.047 14.436,1.413 C14.431,0.371 12.471,0.644 12.4749939,1.547 C12.512,9.884 12.493,18.188 12.778,26.518 C12.7428957,26.6142029 12.7312399,26.7173905 12.744,26.819 L12.808,27.264 C12.931,28.12 14.767,27.744 14.752,26.947 C14.757,26.936 14.768,26.929 14.773,26.918 C16.409,22.747 17.251,18.327 18.667,14.08 C19.188,12.522 19.715,10.972 20.228,9.418 C20.157,15.405 20.286,21.387 20.439,27.379 C20.465,28.391 22.019,28.15 22.349,27.444 L22.405,27.325 C22.517,27.086 22.493,26.902 22.39,26.767 C22.179,18.434 22.001,10.132 22.395,1.798 Z M35.32,0.66 C32.162,1.04 29.008,0.887 25.842,0.708 C25.351,0.68 23.602,1.559 24.621,1.616 C25.714,1.678 26.803,1.725 27.892,1.761 C27.799,1.842 27.731,1.928 27.735,2.026 C28.03,10.434 26.681,19.265 27.926,27.59 C27.989,28.014 29.936,27.595 29.858,27.072 C28.629,18.843 29.927,10.121 29.673,1.802 C31.449,1.814 33.224,1.75 35.003,1.536 C35.86,1.434 36.672,0.497 35.32,0.66 Z" id="Shape"></path>
            </g>
        </g>
    </g>
</svg>