<?xml version="1.0" encoding="UTF-8"?>
<svg width="109px" height="38px" viewBox="0 0 109 38" version="1.1" xmlns="http://www.w3.org/2000/svg" xmlns:xlink="http://www.w3.org/1999/xlink">
    <!-- Generator: Sketch 57.1 (83088) - https://sketch.com -->
    <title>logo-htmlacademy</title>
    <desc>Created with Sketch.</desc>
    <g id="logo-htmlacademy" stroke="none" stroke-width="1" fill="none" fill-rule="evenodd">
        <g fill="#FFFFFF" fill-rule="nonzero" id="Shape">
            <path d="M44.61,27.86 C44.7971107,27.852579 44.9822521,27.8189169 45.16,27.76 L45.16,29.09 C44.7830871,29.2325489 44.3829509,29.3037596 43.98,29.3 C43.2665335,29.3590783 42.5947789,28.95683 42.31,28.3 C41.4234355,29.0190093 40.3112743,29.4015361 39.17,29.38 C37.66,29.38 36.26,28.55 36.26,26.83 C36.26,24.7 38.26,24.04 39.97,24.04 C40.6998021,24.0516555 41.4266667,24.1353957 42.14,24.29 L42.14,23.99 C42.14,22.99 41.38,22.22 39.95,22.22 C38.9163377,22.2220428 37.8945052,22.4400337 36.95,22.86 L36.95,21.16 C37.97732,20.8081964 39.0541846,20.6225301 40.14,20.61 C42.5,20.61 43.95,21.73 43.95,24.26 L43.95,27.26 C43.9361071,27.4033476 43.9800515,27.5463057 44.0720656,27.6570981 C44.1640796,27.7678905 44.2965386,27.8373366 44.44,27.85 L44.61,27.85 L44.61,27.86 Z M38.17,26.73 C38.1954794,27.0902944 38.3642754,27.4253529 38.6386471,27.6602602 C38.9130188,27.8951674 39.2700815,28.0103304 39.63,27.98 L39.74,27.98 C40.6445775,27.9815562 41.5122599,27.621522 42.15,26.98 L42.15,25.56 C41.5545734,25.4334783 40.948578,25.3631694 40.34,25.35 C39.34,25.35 38.18,25.68 38.18,26.73 L38.18,26.73 L38.17,26.73 Z M50.53,20.62 C51.4286211,20.598443 52.3164355,20.8195329 53.1,21.26 L53.1,22.98 C52.4210418,22.5209545 51.619572,22.2770289 50.8,22.28 C49.7797668,22.2183936 48.8095328,22.7276973 48.2807964,23.6024025 C47.7520601,24.4771076 47.7520601,25.5728924 48.2807964,26.4475975 C48.8095328,27.3223027 49.7797668,27.8316064 50.8,27.77 C51.6512747,27.7670061 52.4876892,27.5467159 53.23,27.13 L53.23,28.84 C52.3651738,29.2369783 51.421334,29.4319017 50.47,29.41 C48.1543158,29.5584933 46.1550841,27.8052521 46,25.49 C46,25.35 46,25.2133333 46,25.08 C45.962262,23.9340999 46.3815894,22.8201976 47.1656177,21.9836507 C47.949646,21.1471037 49.0340609,20.6565345 50.18,20.62 L50.56,20.62 L50.53,20.62 Z M62.7,27.86 C62.8871107,27.852579 63.0722521,27.8189169 63.25,27.76 L63.25,29.09 C62.8730871,29.2325489 62.4729509,29.3037596 62.07,29.3 C61.3565335,29.3590783 60.6847789,28.95683 60.4,28.3 C59.5134355,29.0190093 58.4012743,29.4015361 57.26,29.38 C55.75,29.38 54.35,28.55 54.35,26.83 C54.35,24.7 56.35,24.04 58.06,24.04 C58.7898021,24.0516555 59.5166667,24.1353957 60.23,24.29 L60.23,23.99 C60.23,22.99 59.47,22.22 58.04,22.22 C57.0063377,22.2220428 55.9845052,22.4400337 55.04,22.86 L55.04,21.16 C56.06732,20.8081964 57.1441846,20.6225301 58.23,20.61 C60.59,20.61 62.04,21.73 62.04,24.26 L62.04,27.26 C62.0261071,27.4033476 62.0700515,27.5463057 62.1620656,27.6570981 C62.2540796,27.7678905 62.3865386,27.8373366 62.53,27.85 L62.7,27.85 L62.7,27.86 Z M56.26,26.73 C56.285377,27.0921884 56.4555743,27.4288876 56.73217,27.6640881 C57.0087657,27.8992885 57.3684412,28.0131614 57.73,27.98 L57.84,27.98 C58.7445775,27.9815562 59.6122599,27.621522 60.25,26.98 L60.25,25.56 C59.6545734,25.4334783 59.048578,25.3631694 58.44,25.35 C57.38,25.35 56.28,25.68 56.28,26.73 L56.28,26.73 L56.26,26.73 Z M73,16.98 L73,29.18 L71.35,29.18 L71.35,27.86 C70.5967104,28.8570916 69.4092866,29.4303307 68.16,29.4 C65.8502859,29.2440131 64.0564793,27.3249754 64.0564793,25.01 C64.0564793,22.6950246 65.8502859,20.7759869 68.16,20.62 C69.3045588,20.5804267 70.4062065,21.0578074 71.16,21.92 L71.16,16.98 L73,16.98 Z M68.47,22.2 C66.9456941,22.2 65.71,23.4356941 65.71,24.96 C65.71,26.4843059 66.9456941,27.72 68.47,27.72 C69.6342482,27.7396441 70.6941715,27.051485 71.15,25.98 L71.15,23.98 C70.6833803,22.9281211 69.6407315,22.2500074 68.49,22.25 L68.47,22.2 Z M79,20.62 C82.31,20.62 83.46,23.3 82.92,25.71 L76.7,25.71 C76.91,27.21 78.37,27.82 79.89,27.82 C80.8030292,27.8230549 81.7051361,27.6214477 82.53,27.23 L82.53,28.83 C81.5828067,29.2341214 80.5594042,29.4285679 79.53,29.4 C77,29.4 74.78,27.98 74.78,24.98 C74.7229909,23.866068 75.113547,22.7755522 75.8647737,21.9510809 C76.6160005,21.1266095 77.6655829,20.6365733 78.78,20.59 L79,20.59 L79,20.62 Z M79.09,22.16 C77.8369933,22.0681741 76.7458267,23.0072929 76.65,24.26 L76.65,24.32 L81.3,24.32 C81.3495613,23.7315494 81.1365337,23.1512767 80.7179998,22.7346715 C80.2994659,22.3180664 79.7182154,22.1077212 79.13,22.16 L79.09,22.16 Z M84.82,29.16 L84.82,20.85 L86.47,20.85 L86.47,21.85 C87.1788202,21.0572475 88.1867032,20.5968117 89.25,20.58 C90.32321,20.5132768 91.3431519,21.0541551 91.89,21.98 C92.6412187,21.162746 93.6904366,20.6832066 94.8,20.65 C95.6846244,20.6059243 96.5449491,20.9473167 97.1586589,21.5859584 C97.7723687,22.2246001 98.0792493,23.0978308 98,23.98 L98,29.18 L96.1,29.18 L96.1,24.03 C96.1447351,23.6094414 96.0200733,23.1883893 95.753588,22.8599743 C95.4871027,22.5315594 95.1007552,22.3228465 94.68,22.28 L94.42,22.28 C93.5989775,22.3311345 92.8419772,22.7407192 92.35,23.4 L92.35,29.18 L90.45,29.18 L90.45,24.03 C90.4916405,23.6063191 90.3616367,23.1836356 90.0890959,22.8565867 C89.8165552,22.5295378 89.4242442,22.3254436 89,22.29 L88.8,22.29 C87.9076884,22.3684985 87.0971357,22.8416266 86.59,23.58 L86.59,29.21 L84.86,29.21 L84.82,29.16 Z M106.13,20.83 L108.03,20.83 L104.12,30.29 C103.22,32.46 102.03,33.15 100.77,33.15 C100.399131,33.1463473 100.02996,33.0993619 99.67,33.01 L99.67,31.44 C99.9456826,31.5225356 100.232243,31.5629912 100.52,31.56 C101.42,31.56 102.1,30.92 102.59,29.66 L102.76,29.24 L98.76,20.84 L100.76,20.84 L103.62,27.13 L106.13,20.83 Z M38.73,2.44 L38.73,7.2 C39.4419973,6.47519602 40.413999,6.06479528 41.43,6.06 C42.3510665,6.00499654 43.2520974,6.34409775 43.9083544,6.9927238 C44.5646113,7.64134985 44.9142274,8.53835318 44.87,9.46 L44.87,14.61 L43,14.61 L43,9.7 C43.0532243,9.22099608 42.9132144,8.74054513 42.6109983,8.36512138 C42.3087822,7.98969762 41.8693192,7.75030642 41.39,7.7 L41.09,7.7 C40.1362913,7.75736073 39.2704491,8.27611967 38.77,9.09 L38.77,14.61 L36.87,14.61 L36.87,2.44 L38.77,2.44 L38.73,2.44 Z M49.94,3.29 L49.94,6.29 L52.94,6.29 L52.94,7.89 L49.94,7.89 L49.94,11.7 C49.94,12.8 50.44,13.16 51.52,13.16 C52.0993478,13.1600611 52.6732324,13.0480008 53.21,12.83 L53.21,14.43 C52.4977134,14.667898 51.7509392,14.7861654 51,14.78 C50.237445,14.8760456 49.4722465,14.6230272 48.9172601,14.091327 C48.3622738,13.5596268 48.0767085,12.8059694 48.14,12.04 L48.14,7.87 L46.58,7.87 L46.58,6.24 L48.08,6.24 L48.08,3.72 L49.94,3.29 Z M55.34,14.6 L55.34,6.26 L57,6.26 L57,7.26 C57.7046925,6.46606832 58.7086664,6.00213812 59.77,5.98 C60.8147616,5.91408725 61.812055,6.42424119 62.37,7.31 C63.1212187,6.49274602 64.1704366,6.0132066 65.28,5.98 C66.1712919,5.94525164 67.0333808,6.30113028 67.6406168,6.95448554 C68.2478529,7.6078408 68.5397848,8.49363002 68.44,9.38 L68.44,14.59 L66.54,14.59 L66.54,9.44 C66.5847351,9.01944139 66.4600733,8.59838925 66.193588,8.26997431 C65.9271027,7.94155938 65.5407552,7.7328465 65.12,7.69 L64.89,7.69 C64.0689775,7.7411345 63.3119772,8.15071923 62.82,8.81 L62.82,14.59 L60.92,14.59 L60.92,9.44 C60.9647351,9.01944139 60.8400733,8.59838925 60.573588,8.26997431 C60.3071027,7.94155938 59.9207552,7.7328465 59.5,7.69 L59.27,7.69 C58.3776884,7.76849854 57.5671357,8.24162657 57.06,8.98 L57.06,14.61 L55.34,14.61 L55.34,14.6 Z M71.17,2.43 L73,2.43 L73,14.58 L71.17,14.58 L71.17,2.43 Z M14.71,0.98 L14.55,0.98 L0,2.52 L0,29.19 L14.55,37.85 L29.1,29.19 L29.1,2.52 L14.71,0.98 Z M27.21,28.08 L14.55,35.62 L1.9,28.1 L1.9,17.16 L14.49,24.66 L14.49,25.98 L5.86,20.88 L5.86,22.19 L14.54,27.4 L14.54,28.79 L5.87,23.63 L5.87,24.98 L14.55,30.19 L23.3,24.95 L23.3,19.29 L27.2,16.98 L27.2,28.1 L27.21,28.08 Z M27.21,15.55 L23.73,17.55 L22.13,18.55 L14.51,13.98 L14.51,15.29 L21,19.21 L21,19.21 L20.86,19.3 L19.86,19.84 L14.49,16.64 L14.49,17.98 L18.73,20.5 L17.73,21.17 L14.53,19.27 L14.53,20.58 L16.63,21.82 L14.5,23.08 L2,15.63 L14.51,8.09 L27.21,15.55 Z M27.21,14.23 L14.49,6.74 L1.91,14.23 L1.91,4.23 L14.56,2.9 L27.21,4.23 L27.21,14.23 L27.21,14.23 Z"></path>
        </g>
    </g>
</svg>