<?xml version="1.0" encoding="UTF-8"?>
<svg width="49px" height="49px" viewBox="0 0 49 49" version="1.1" xmlns="http://www.w3.org/2000/svg" xmlns:xlink="http://www.w3.org/1999/xlink">
    <!-- Generator: Sketch 57.1 (83088) - https://sketch.com -->
    <title>thermometer</title>
    <desc>Created with Sketch.</desc>
    <g id="thermometer" stroke="none" stroke-width="1" fill="none" fill-rule="evenodd">
        <g fill="#323232" fill-rule="nonzero" id="Shape">
            <path d="M24.5,0 C10.969,0 0,10.969 0,24.5 C0,38.031 10.969,49 24.5,49 C38.031,49 49,38.031 49,24.5 C49,10.969 38.031,0 24.5,0 Z M24.5,47 C12.093,47 2,36.906 2,24.5 C2,12.093 12.093,2 24.5,2 C36.906,2 47,12.093 47,24.5 C47,36.906 36.906,47 24.5,47 Z"></path>
            <path d="M28.938,13.125 C28.938,10.351 26.681,8.094 23.907,8.094 C21.133,8.094 18.8759966,10.351 18.8759966,13.125 L18.8759966,27.765 C17.5920247,29.0818568 16.8741977,30.8487879 16.8759966,32.688 C16.8759966,36.617 20.072,39.813 24.001,39.813 C27.93,39.813 31.126,36.617 31.126,32.688 C31.1227035,30.753171 30.3328986,28.9028327 28.938,27.562 L28.938,13.125 L28.938,13.125 Z M29.125,32.688 C29.0698621,35.4790054 26.79155,37.7127528 24,37.7127528 C21.20845,37.7127528 18.9301379,35.4790054 18.875,32.688 C18.875,31.041 19.667,29.59 20.875,28.653 L20.875,13.125 C20.875,11.4510249 22.2320249,10.094 23.906,10.094 C25.5799751,10.094 26.937,11.4510249 26.937,13.125 L26.937,28.497 C28.3070631,29.4527911 29.1239464,31.0174886 29.125,32.688 L29.125,32.688 Z"></path>
            <path d="M25,29.559 L25,13.188 C25,12.6357153 24.5522847,12.188 24,12.188 C23.4477153,12.188 23,12.6357153 23,13.188 L23,29.559 C21.8037632,29.9787527 21.0022679,31.107258 21,32.375 C21,34.0318542 22.3431458,35.375 24,35.375 C25.6568542,35.375 27,34.0318542 27,32.375 C26.9977321,31.107258 26.1962368,29.9787527 25,29.559 L25,29.559 Z M31,12 L37,12 L37,14 L31,14 L31,12 Z M31,16 L37,16 L37,18 L31,18 L31,16 Z M31,20 L37,20 L37,22 L31,22 L31,20 Z M31,24 L37,24 L37,26 L31,26 L31,24 Z"></path>
        </g>
    </g>
</svg>