<?xml version="1.0" encoding="UTF-8"?>
<svg width="20px" height="20px" viewBox="0 0 20 20" version="1.1" xmlns="http://www.w3.org/2000/svg" xmlns:xlink="http://www.w3.org/1999/xlink">
    <!-- Generator: Sketch 57.1 (83088) - https://sketch.com -->
    <title>checkbox-off</title>
    <desc>Created with Sketch.</desc>
    <g id="checkbox-off" stroke="none" stroke-width="1" fill="none" fill-rule="evenodd" opacity="0.8">
        <g fill="#FFFFFF" fill-rule="nonzero" id="Shape">
            <path d="M17.3913043,1.73913043 C17.8626087,1.73913043 18.2608696,2.1373913 18.2608696,2.60869565 L18.2608696,17.3913043 C18.2608696,17.8626087 17.8626087,18.2608696 17.3913043,18.2608696 L2.60869565,18.2608696 C2.1373913,18.2608696 1.73913043,17.8626087 1.73913043,17.3913043 L1.73913043,2.60869565 C1.73913043,2.1373913 2.1373913,1.73913043 2.60869565,1.73913043 L17.3913043,1.73913043 L17.3913043,1.73913043 Z M17.3913043,0 L2.60869565,0 C1.17391304,0 0,1.17391304 0,2.60869565 L0,17.3913043 C0,18.826087 1.17391304,20 2.60869565,20 L17.3913043,20 C18.826087,20 20,18.826087 20,17.3913043 L20,2.60869565 C20,1.17391304 18.826087,0 17.3913043,0 Z"></path>
        </g>
    </g>
</svg>