<?xml version="1.0" encoding="UTF-8"?>
<svg width="49px" height="49px" viewBox="0 0 49 49" version="1.1" xmlns="http://www.w3.org/2000/svg" xmlns:xlink="http://www.w3.org/1999/xlink">
    <!-- Generator: Sketch 57.1 (83088) - https://sketch.com -->
    <title>cow</title>
    <desc>Created with Sketch.</desc>
    <g id="cow" stroke="none" stroke-width="1" fill="none" fill-rule="evenodd">
        <g fill="#323232" fill-rule="nonzero" id="Shape">
            <path d="M24.5,0 C10.969,0 0,10.969 0,24.5 C0,38.031 10.969,49 24.5,49 C38.031,49 49,38.031 49,24.5 C49,10.969 38.031,0 24.5,0 Z M24.5,47 C12.093,47 2,36.906 2,24.5 C2,12.093 12.093,2 24.5,2 C36.906,2 47,12.093 47,24.5 C47,36.906 36.906,47 24.5,47 Z"></path>
            <path d="M34.811,19.342 C35.671,17.631 36.691,14.355 35.244,9.86 C35.1222419,9.48099072 34.7872786,9.21029768 34.3911567,9.17079402 C33.9950349,9.13129036 33.6132099,9.33050095 33.419,9.678 C32.148,11.946 29.381,15.605 27.372,15.772 C27.342,15.774 27.318,15.791 27.289,15.796 C26.3696072,15.6171005 25.4364624,15.5180647 24.5,15.5 C24.397,15.5 23.189,15.509 21.699,15.792 C21.674,15.788 21.654,15.773 21.628,15.771 C19.624,15.604 16.855,11.944 15.58,9.676 C15.7200772,9.24075054 15.5471014,8.76592955 15.1598828,8.52277234 C14.7726641,8.27961513 14.2698414,8.3300628 13.9386457,8.64529777 C13.6074499,8.96053274 13.5322488,9.46025307 13.756,9.859 C12.308,14.353 13.329,17.63 14.189,19.341 C12.445,19.561 10.235,20.118 9.432,21.529 C9.044,22.211 9.052,22.993 9.456,23.73 C9.97,24.669 10.855,24.975 11.79,24.975 C12.606,24.975 13.458,24.742 14.139,24.493 C14.135,25.033 14.165,25.573 14.268,26.105 C14.556,27.601 15.399,29.741 16.016,31.302 C16.204,31.781 16.412,32.306 16.525,32.626 C16.29,33.24 15.853,34.438 15.759,35.11 C15.647,35.911 15.873,37.257 16.88,38.416 C18.323,40.075 20.886,40.916 24.499,40.916 C28.111,40.916 30.675,40.075 32.118,38.416 C33.125,37.258 33.351,35.911 33.239,35.11 C33.145,34.437 32.709,33.24 32.472,32.626 C32.586,32.307 32.792,31.783 32.981,31.306 C33.598,29.743 34.443,27.602 34.731,26.105 C34.82712,25.5738506 34.8723249,25.0347395 34.866,24.495 C35.545,24.743 36.394,24.975 37.208,24.975 C38.144,24.975 39.028,24.669 39.542,23.73 C39.946,22.993 39.954,22.211 39.566,21.529 C38.765,20.119 36.555,19.562 34.811,19.342 L34.811,19.342 Z M33.858,12.708 C34.286,15.768 33.381,17.865 32.827,18.82 C32.5785962,18.5137066 32.3121218,18.2225216 32.029,17.948 C31.485,17.422 30.83,17.014 30.138,16.69 C31.621,15.639 32.939,14.017 33.858,12.708 L33.858,12.708 Z M15.142,12.71 C16.058,14.014 17.371,15.629 18.848,16.68 C18.147,17.009 17.489,17.424 16.956,17.963 C16.68,18.242 16.423,18.533 16.185,18.835 C15.636,17.892 14.717,15.781 15.142,12.71 L15.142,12.71 Z M11.21,22.77 C11.121,22.607 11.147,22.56 11.17,22.52 C11.393,22.129 12.557,21.514 14.779,21.287 C14.663,21.577 14.562,21.869 14.477,22.165 C13.212,22.838 11.479,23.256 11.21,22.77 L11.21,22.77 Z M32.768,25.729 C32.516,27.042 31.71,29.083 31.122,30.573 C30.724,31.583 30.513,32.125 30.439,32.45 L30.373,32.752 L30.487,33.039 C30.77,33.749 31.198,34.947 31.259,35.39 C31.26,35.399 31.355,36.248 30.61,37.106 C29.89,37.932 28.247,38.918 24.5,38.918 C20.753,38.918 19.109,37.932 18.39,37.106 C17.644,36.249 17.739,35.399 17.74,35.39 C17.802,34.949 18.229,33.749 18.512,33.038 L18.626,32.752 L18.56,32.45 C18.488,32.124 18.276,31.581 17.877,30.569 C17.29,29.08 16.485,27.041 16.232,25.728 C15.81,23.53 16.611,21.153 18.377,19.37 C19.89,17.842 23.31,17.502 24.5,17.499 C25.666,17.499 29.039,17.838 30.639,19.385 C32.72,21.399 33.104,23.982 32.768,25.729 L32.768,25.729 Z M37.789,22.77 C37.526,23.249 35.815,22.84 34.551,22.178 C34.4667548,21.8772679 34.3676328,21.5809032 34.254,21.29 C36.452,21.52 37.608,22.13 37.829,22.519 C37.853,22.56 37.879,22.606 37.789,22.77 L37.789,22.77 Z"></path>
        </g>
    </g>
</svg>