<?xml version="1.0" encoding="UTF-8"?>
<svg width="49px" height="49px" viewBox="0 0 49 49" version="1.1" xmlns="http://www.w3.org/2000/svg" xmlns:xlink="http://www.w3.org/1999/xlink">
    <!-- Generator: Sketch 57.1 (83088) - https://sketch.com -->
    <title>ice-cream</title>
    <desc>Created with Sketch.</desc>
    <g id="ice-cream" stroke="none" stroke-width="1" fill="none" fill-rule="evenodd">
        <g fill="#323232" fill-rule="nonzero" id="Shape">
            <path d="M24.5,0 C10.969,0 0,10.969 0,24.5 C0,38.031 10.969,49 24.5,49 C38.031,49 49,38.031 49,24.5 C49,10.969 38.031,0 24.5,0 Z M24.5,47 C12.093,47 2,36.906 2,24.5 C2,12.093 12.093,2 24.5,2 C36.906,2 47,12.093 47,24.5 C47,36.906 36.906,47 24.5,47 Z"></path>
            <path d="M24.5,7.625 C20.145,7.625 16.56,10.903 16.064,15.125 L16,15.125 L16,32.042 L33,32.042 L33,15.125 L32.937,15.125 C32.44,10.903 28.855,7.625 24.5,7.625 Z M31,30.042 L18,30.042 L18,20.785 C18.275,21.122 18.705,21.416 19.542,21.416 C20.834,21.416 21.667,20.703 21.667,19.791 L21.667,18.916 C21.667,18.6108952 21.8297715,18.3289667 22.094,18.1764143 C22.3582285,18.0238618 22.6837715,18.0238618 22.948,18.1764143 C23.2122285,18.3289667 23.375,18.6108952 23.375,18.916 C23.375,18.925 23.37,18.933 23.37,18.941 C23.37,18.948 23.375,18.951 23.375,18.958 L23.375,22.25 C23.375,22.25 23.344,24.083 25.5,24.083 C27.609,24.083 27.625,22.333 27.625,22.333 L27.625,20.083 L27.626,20.083 L27.625,20.078 C27.625,19.3357293 28.2267293,18.734 28.969,18.734 C29.7112707,18.734 30.313,19.3357293 30.313,20.078 C30.313,20.109 30.334,20.166 30.334,20.166 C30.334,20.166 30.368,20.775 31.001,21.06 L31.001,30.042 L31,30.042 Z M23,40.125 C23,40.9534271 23.6715729,41.625 24.5,41.625 C25.3284271,41.625 26,40.9534271 26,40.125 L26,33 L23,33 L23,40.125 Z"></path>
        </g>
    </g>
</svg>