<?xml version="1.0" encoding="UTF-8"?>
<svg width="80px" height="140px" viewBox="0 0 80 140" version="1.1" xmlns="http://www.w3.org/2000/svg" xmlns:xlink="http://www.w3.org/1999/xlink">
    <!-- Generator: Sketch 57.1 (83088) - https://sketch.com -->
    <title>pin</title>
    <desc>Created with Sketch.</desc>
    <g id="pin" stroke="none" stroke-width="1" fill="none" fill-rule="evenodd">
        <g fill="#E84D37" fill-rule="nonzero" id="Shape">
            <path d="M40,7.101 C55.622,7.101 68.285,19.765 68.285,35.387 C68.285,40.499 66.923,45.289 64.551,49.428 C69.054,50.071 72.5220001,53.934 72.5220001,58.616 C72.5220001,61.0807382 71.5432693,63.4446032 69.8004363,65.1874363 C68.0576032,66.9302693 65.6937382,67.9092653 63.229,67.909 C58.547,67.909 54.684,64.442 54.041,59.938 C53.688,60.139 53.332,60.334 52.971,60.521 C51.959,66.781 46.545,71.566 40,71.566 C33.454,71.566 28.04,66.78 27.028,60.52 C26.6677354,60.3333097 26.3113275,60.1392691 25.959,59.938 C25.315,64.442 21.454,67.909 16.771,67.909 C11.639,67.909 7.479,63.748 7.479,58.616 C7.479,53.934 10.945,50.072 15.449,49.428 C12.9966173,45.155205 11.7087056,40.3135536 11.714,35.387 C11.714,19.765 24.378,7.101 40,7.101 L40,7.101 Z M40,0.101 C20.543,0.101 4.714,15.93 4.714,35.387 C4.714,39.033 5.282,42.65 6.382,46.1 C2.763,49.116 0.479,53.652 0.479,58.615 C0.479,67.599 7.788,74.909 16.771,74.909 C19.928,74.909 22.912,73.984 25.443,72.38 C29.124,76.226 34.303,78.567 40,78.567 C45.697,78.567 50.875,76.226 54.556,72.38 C57.1482625,74.0293247 60.1565269,74.9065184 63.229,74.909 C72.213,74.909 79.522,67.599 79.522,58.615 C79.522,53.653 77.238,49.116 73.619,46.099 C74.7227501,42.6350852 75.285041,39.0215149 75.286,35.386 C75.285,15.93 59.456,0.101 40,0.101 Z"></path>
            <path d="M63.229,78.908 C60.394,78.908 57.669,78.31 55.189,77.227 C54.818,77.527 54.428,77.801 54.04,78.078 L54.565,78.603 L50.667,82.501 L48.994,80.828 C48.307,81.101 47.608,81.345 46.893,81.556 L49.252,83.915 L45.354,87.813 L41.456,83.915 L43.012,82.359 C42.023,82.481 41.023,82.565 40.001,82.565 C39.013,82.565 38.043,82.486 37.084,82.371 L38.627,83.915 L34.729,87.813 L30.831,83.915 L33.17,81.575 C32.4576758,81.3668742 31.7555627,81.1252725 31.066,80.851 L29.417,82.5 L25.519,78.602 L26.009,78.113 C25.604,77.825 25.198,77.538 24.812,77.226 C22.2769513,78.3347832 19.5399246,78.9071109 16.773,78.907 C16.569,78.907 16.372,78.883 16.17,78.877 C16.0936834,79.4226993 16.1485323,79.9787295 16.33,80.499 L36.705,137.624 C36.729,137.692 36.764,137.752 36.792,137.817 C36.822,137.887 36.85,137.956 36.884,138.023 C36.954,138.163 37.034,138.294 37.121,138.42 C37.15,138.462 37.175,138.507 37.205,138.549 C37.33,138.715 37.467,138.869 37.617,139.008 C37.649,139.038 37.686,139.063 37.72,139.092 C37.845,139.199 37.974,139.297 38.112,139.386 C38.17,139.423 38.23,139.456 38.291,139.49 C38.429,139.567 38.57,139.635 38.717,139.692 C38.755,139.707 38.787,139.73 38.825,139.744 C38.845,139.751 38.865,139.753 38.884,139.76 C39.011,139.803 39.142,139.834 39.275,139.863 C39.33,139.875 39.384,139.892 39.439,139.901 C39.624,139.931 39.812,139.949 40.001,139.949 C40.19,139.949 40.378,139.931 40.563,139.901 C40.62,139.892 40.676,139.874 40.733,139.861 C40.863,139.834 40.992,139.803 41.117,139.76 C41.138,139.753 41.158,139.751 41.178,139.744 C41.218,139.73 41.25,139.707 41.289,139.691 C41.434,139.633 41.574,139.567 41.71,139.491 C41.7721036,139.457607 41.8331342,139.422256 41.893,139.385 C42.029,139.297 42.158,139.199 42.281,139.094 C42.315,139.064 42.353,139.038 42.386,139.008 C42.536,138.868 42.673,138.714 42.798,138.548 C42.828,138.508 42.852,138.464 42.88,138.423 C42.968,138.295 43.049,138.162 43.12,138.022 C43.153,137.956 43.182,137.888 43.21,137.821 C43.238,137.755 43.274,137.693 43.299,137.624 L63.672,80.5 C63.8534677,79.9797295 63.9083166,79.4236993 63.832,78.878 C63.63,78.884 63.433,78.908 63.229,78.908 L63.229,78.908 Z M49.252,94.541 L45.354,98.439 L41.456,94.541 L45.354,90.643 L49.252,94.541 Z M36.143,99.854 L40.041,95.956 L43.939,99.854 L40.041,103.752 L36.143,99.854 Z M43.939,110.479 L40.041,114.377 L36.143,110.479 L40.041,106.581 L43.939,110.479 Z M40.041,85.33 L43.939,89.228 L40.041,93.126 L36.143,89.228 L40.041,85.33 Z M38.627,94.541 L34.729,98.439 L30.831,94.541 L34.729,90.643 L38.627,94.541 Z M23.724,80.397 L24.104,80.017 L28.002,83.915 L25.773,86.144 L23.724,80.397 Z M26.517,88.229 L29.416,85.33 L33.314,89.228 L29.416,93.126 L27.625,91.335 L26.517,88.229 Z M29.311,96.061 L29.416,95.956 L33.314,99.854 L31.36,101.808 L29.311,96.061 L29.311,96.061 Z M33.516,107.853 L32.103,103.893 L34.728,101.268 L38.626,105.166 L34.728,109.064 L33.516,107.853 Z M36.947,117.471 L35.084,112.248 L38.627,115.791 L36.947,117.471 L36.947,117.471 Z M40,126.031 L37.69,119.555 L40.041,117.204 L42.331,119.494 L40,126.031 L40,126.031 Z M43.074,117.41 L41.455,115.791 L44.87,112.376 L43.074,117.41 Z M46.438,107.979 L45.353,109.064 L41.455,105.166 L45.353,101.268 L47.917,103.832 L46.438,107.979 Z M48.661,101.747 L46.767,99.853 L50.665,95.955 L50.711,96 L48.661,101.747 L48.661,101.747 Z M52.329,91.464 L50.666,93.127 L46.768,89.229 L50.666,85.331 L53.504,88.169 L52.329,91.464 L52.329,91.464 Z M54.248,86.084 L52.08,83.916 L55.978,80.018 L56.297,80.337 L54.248,86.084 L54.248,86.084 Z"></path>
        </g>
    </g>
</svg>